<mxfile host="app.diagrams.net" modified="2024-07-18T00:31:01.675Z" agent="Mozilla/5.0 (Windows NT 10.0; Win64; x64) AppleWebKit/537.36 (KHTML, like Gecko) Chrome/126.0.0.0 Safari/537.36" etag="Y3j7DNHGKGKabFw4iLGJ" version="24.7.1" type="device">
  <diagram name="Page-1" id="bPo8FlxBzKCM1ejio0y-">
    <mxGraphModel dx="2614" dy="1018" grid="1" gridSize="10" guides="1" tooltips="1" connect="1" arrows="1" fold="1" page="1" pageScale="1" pageWidth="850" pageHeight="1100" math="0" shadow="0">
      <root>
        <mxCell id="0" />
        <mxCell id="1" parent="0" />
        <mxCell id="xqg9ny0a13wJScTpyFNz-2" value="Plant" style="rounded=0;whiteSpace=wrap;html=1;" parent="1" vertex="1">
          <mxGeometry x="290" y="150" width="170" height="30" as="geometry" />
        </mxCell>
        <mxCell id="xqg9ny0a13wJScTpyFNz-3" value="+ plant(species:String, age:int, height:double)&lt;div&gt;+setAge(age:int):void&lt;/div&gt;&lt;div&gt;+setHeight(height:double):void&lt;/div&gt;&lt;div&gt;+getSpecies():String&lt;/div&gt;&lt;div&gt;+getAge():int&lt;/div&gt;&lt;div&gt;+getHeight():double&lt;/div&gt;" style="rounded=0;whiteSpace=wrap;html=1;align=left;" parent="1" vertex="1">
          <mxGeometry x="290" y="240" width="170" height="130" as="geometry" />
        </mxCell>
        <mxCell id="xqg9ny0a13wJScTpyFNz-4" value="Herb" style="rounded=0;whiteSpace=wrap;html=1;" parent="1" vertex="1">
          <mxGeometry x="-110" y="410" width="155" height="30" as="geometry" />
        </mxCell>
        <mxCell id="xqg9ny0a13wJScTpyFNz-5" value="getFlavor():String&lt;div&gt;getCookingUse():String&lt;/div&gt;" style="rounded=0;whiteSpace=wrap;html=1;align=left;" parent="1" vertex="1">
          <mxGeometry x="-110" y="450" width="155" height="110" as="geometry" />
        </mxCell>
        <mxCell id="xqg9ny0a13wJScTpyFNz-6" value="Grass" style="rounded=0;whiteSpace=wrap;html=1;" parent="1" vertex="1">
          <mxGeometry x="590" y="490" width="155" height="30" as="geometry" />
        </mxCell>
        <mxCell id="xqg9ny0a13wJScTpyFNz-7" value="fertelize():void&lt;div&gt;maintanence():String&lt;br&gt;&lt;div&gt;&lt;br&gt;&lt;/div&gt;&lt;/div&gt;" style="rounded=0;whiteSpace=wrap;html=1;align=left;" parent="1" vertex="1">
          <mxGeometry x="590" y="530" width="155" height="110" as="geometry" />
        </mxCell>
        <mxCell id="xqg9ny0a13wJScTpyFNz-8" value="Mint" style="rounded=0;whiteSpace=wrap;html=1;" parent="1" vertex="1">
          <mxGeometry x="-320" y="800" width="155" height="30" as="geometry" />
        </mxCell>
        <mxCell id="xqg9ny0a13wJScTpyFNz-9" value="" style="rounded=0;whiteSpace=wrap;html=1;" parent="1" vertex="1">
          <mxGeometry x="-320" y="890" width="155" height="60" as="geometry" />
        </mxCell>
        <mxCell id="xqg9ny0a13wJScTpyFNz-10" value="Cilantro" style="rounded=0;whiteSpace=wrap;html=1;" parent="1" vertex="1">
          <mxGeometry x="-90" y="800" width="155" height="30" as="geometry" />
        </mxCell>
        <mxCell id="xqg9ny0a13wJScTpyFNz-11" value="" style="rounded=0;whiteSpace=wrap;html=1;" parent="1" vertex="1">
          <mxGeometry x="-90" y="890" width="155" height="60" as="geometry" />
        </mxCell>
        <mxCell id="xqg9ny0a13wJScTpyFNz-12" value="Lemon Grass" style="rounded=0;whiteSpace=wrap;html=1;" parent="1" vertex="1">
          <mxGeometry x="560" y="865" width="155" height="30" as="geometry" />
        </mxCell>
        <mxCell id="xqg9ny0a13wJScTpyFNz-13" value="" style="rounded=0;whiteSpace=wrap;html=1;" parent="1" vertex="1">
          <mxGeometry x="560" y="955" width="155" height="60" as="geometry" />
        </mxCell>
        <mxCell id="xqg9ny0a13wJScTpyFNz-14" value="Pampas" style="rounded=0;whiteSpace=wrap;html=1;" parent="1" vertex="1">
          <mxGeometry x="800" y="865" width="155" height="30" as="geometry" />
        </mxCell>
        <mxCell id="xqg9ny0a13wJScTpyFNz-15" value="" style="rounded=0;whiteSpace=wrap;html=1;" parent="1" vertex="1">
          <mxGeometry x="800" y="955" width="155" height="60" as="geometry" />
        </mxCell>
        <mxCell id="xqg9ny0a13wJScTpyFNz-16" value="" style="endArrow=block;html=1;rounded=0;endFill=0;entryX=0.5;entryY=1;entryDx=0;entryDy=0;exitX=0.576;exitY=-0.026;exitDx=0;exitDy=0;exitPerimeter=0;" parent="1" source="xqg9ny0a13wJScTpyFNz-8" target="xqg9ny0a13wJScTpyFNz-5" edge="1">
          <mxGeometry width="50" height="50" relative="1" as="geometry">
            <mxPoint x="-90" y="650" as="sourcePoint" />
            <mxPoint x="-40" y="600" as="targetPoint" />
          </mxGeometry>
        </mxCell>
        <mxCell id="xqg9ny0a13wJScTpyFNz-17" value="" style="endArrow=block;html=1;rounded=0;endFill=0;entryX=0.519;entryY=1.017;entryDx=0;entryDy=0;exitX=0.5;exitY=0;exitDx=0;exitDy=0;entryPerimeter=0;" parent="1" source="xqg9ny0a13wJScTpyFNz-10" target="xqg9ny0a13wJScTpyFNz-5" edge="1">
          <mxGeometry width="50" height="50" relative="1" as="geometry">
            <mxPoint x="-80" y="660" as="sourcePoint" />
            <mxPoint x="-22" y="570" as="targetPoint" />
          </mxGeometry>
        </mxCell>
        <mxCell id="xqg9ny0a13wJScTpyFNz-18" value="" style="endArrow=block;html=1;rounded=0;endFill=0;entryX=0.5;entryY=1;entryDx=0;entryDy=0;" parent="1" source="xqg9ny0a13wJScTpyFNz-12" target="xqg9ny0a13wJScTpyFNz-7" edge="1">
          <mxGeometry width="50" height="50" relative="1" as="geometry">
            <mxPoint x="570" y="730" as="sourcePoint" />
            <mxPoint x="628" y="640" as="targetPoint" />
          </mxGeometry>
        </mxCell>
        <mxCell id="xqg9ny0a13wJScTpyFNz-19" value="" style="endArrow=block;html=1;rounded=0;endFill=0;entryX=0.5;entryY=1;entryDx=0;entryDy=0;" parent="1" target="xqg9ny0a13wJScTpyFNz-7" edge="1">
          <mxGeometry width="50" height="50" relative="1" as="geometry">
            <mxPoint x="880" y="860" as="sourcePoint" />
            <mxPoint x="848" y="640" as="targetPoint" />
          </mxGeometry>
        </mxCell>
        <mxCell id="xqg9ny0a13wJScTpyFNz-20" value="" style="endArrow=block;html=1;rounded=0;endFill=0;entryX=0;entryY=0.5;entryDx=0;entryDy=0;exitX=0.5;exitY=0;exitDx=0;exitDy=0;" parent="1" edge="1" source="xqg9ny0a13wJScTpyFNz-4">
          <mxGeometry width="50" height="50" relative="1" as="geometry">
            <mxPoint x="-40" y="415" as="sourcePoint" />
            <mxPoint x="100" y="390" as="targetPoint" />
          </mxGeometry>
        </mxCell>
        <mxCell id="xqg9ny0a13wJScTpyFNz-21" value="" style="endArrow=block;html=1;rounded=0;endFill=0;entryX=0.5;entryY=1;entryDx=0;entryDy=0;" parent="1" target="xqg9ny0a13wJScTpyFNz-30" edge="1">
          <mxGeometry width="50" height="50" relative="1" as="geometry">
            <mxPoint x="660" y="490" as="sourcePoint" />
            <mxPoint x="718" y="400" as="targetPoint" />
          </mxGeometry>
        </mxCell>
        <mxCell id="xqg9ny0a13wJScTpyFNz-22" value="" style="rounded=0;whiteSpace=wrap;html=1;" parent="1" vertex="1">
          <mxGeometry x="-110" y="440" width="155" height="10" as="geometry" />
        </mxCell>
        <mxCell id="xqg9ny0a13wJScTpyFNz-23" value="" style="rounded=0;whiteSpace=wrap;html=1;" parent="1" vertex="1">
          <mxGeometry x="590" y="520" width="155" height="10" as="geometry" />
        </mxCell>
        <mxCell id="xqg9ny0a13wJScTpyFNz-24" value="- species: String&lt;div&gt;- age: int&lt;/div&gt;&lt;div&gt;- height:double&lt;br&gt;&lt;div&gt;&lt;br&gt;&lt;/div&gt;&lt;/div&gt;" style="rounded=0;whiteSpace=wrap;html=1;align=left;" parent="1" vertex="1">
          <mxGeometry x="290" y="180" width="170" height="60" as="geometry" />
        </mxCell>
        <mxCell id="xqg9ny0a13wJScTpyFNz-25" value="" style="rounded=0;whiteSpace=wrap;html=1;" parent="1" vertex="1">
          <mxGeometry x="-320" y="830" width="155" height="60" as="geometry" />
        </mxCell>
        <mxCell id="xqg9ny0a13wJScTpyFNz-26" value="" style="rounded=0;whiteSpace=wrap;html=1;" parent="1" vertex="1">
          <mxGeometry x="-90" y="830" width="155" height="60" as="geometry" />
        </mxCell>
        <mxCell id="xqg9ny0a13wJScTpyFNz-27" value="" style="rounded=0;whiteSpace=wrap;html=1;" parent="1" vertex="1">
          <mxGeometry x="560" y="895" width="155" height="60" as="geometry" />
        </mxCell>
        <mxCell id="xqg9ny0a13wJScTpyFNz-28" value="" style="rounded=0;whiteSpace=wrap;html=1;" parent="1" vertex="1">
          <mxGeometry x="800" y="895" width="155" height="60" as="geometry" />
        </mxCell>
        <mxCell id="xqg9ny0a13wJScTpyFNz-29" value="Fruit" style="rounded=0;whiteSpace=wrap;html=1;" parent="1" vertex="1">
          <mxGeometry x="550" y="260" width="155" height="30" as="geometry" />
        </mxCell>
        <mxCell id="xqg9ny0a13wJScTpyFNz-30" value="" style="rounded=0;whiteSpace=wrap;html=1;" parent="1" vertex="1">
          <mxGeometry x="550" y="320" width="155" height="90" as="geometry" />
        </mxCell>
        <mxCell id="xqg9ny0a13wJScTpyFNz-31" value="" style="rounded=0;whiteSpace=wrap;html=1;" parent="1" vertex="1">
          <mxGeometry x="550" y="290" width="155" height="30" as="geometry" />
        </mxCell>
        <mxCell id="xqg9ny0a13wJScTpyFNz-32" value="Flower" style="rounded=0;whiteSpace=wrap;html=1;" parent="1" vertex="1">
          <mxGeometry x="100" y="290" width="155" height="30" as="geometry" />
        </mxCell>
        <mxCell id="xqg9ny0a13wJScTpyFNz-33" value="" style="rounded=0;whiteSpace=wrap;html=1;" parent="1" vertex="1">
          <mxGeometry x="100" y="340" width="155" height="100" as="geometry" />
        </mxCell>
        <mxCell id="xqg9ny0a13wJScTpyFNz-34" value="" style="rounded=0;whiteSpace=wrap;html=1;" parent="1" vertex="1">
          <mxGeometry x="100" y="320" width="155" height="20" as="geometry" />
        </mxCell>
        <mxCell id="xqg9ny0a13wJScTpyFNz-35" value="Shoot System" style="rounded=0;whiteSpace=wrap;html=1;" parent="1" vertex="1">
          <mxGeometry x="590" y="50" width="155" height="30" as="geometry" />
        </mxCell>
        <mxCell id="xqg9ny0a13wJScTpyFNz-36" value="" style="rounded=0;whiteSpace=wrap;html=1;" parent="1" vertex="1">
          <mxGeometry x="590" y="140" width="155" height="60" as="geometry" />
        </mxCell>
        <mxCell id="xqg9ny0a13wJScTpyFNz-37" value="" style="rounded=0;whiteSpace=wrap;html=1;" parent="1" vertex="1">
          <mxGeometry x="590" y="80" width="155" height="60" as="geometry" />
        </mxCell>
        <mxCell id="xqg9ny0a13wJScTpyFNz-38" value="Root System" style="rounded=0;whiteSpace=wrap;html=1;" parent="1" vertex="1">
          <mxGeometry y="40" width="155" height="30" as="geometry" />
        </mxCell>
        <mxCell id="xqg9ny0a13wJScTpyFNz-39" value="" style="rounded=0;whiteSpace=wrap;html=1;" parent="1" vertex="1">
          <mxGeometry y="130" width="155" height="60" as="geometry" />
        </mxCell>
        <mxCell id="xqg9ny0a13wJScTpyFNz-40" value="" style="rounded=0;whiteSpace=wrap;html=1;" parent="1" vertex="1">
          <mxGeometry y="70" width="155" height="60" as="geometry" />
        </mxCell>
        <mxCell id="aKAsnHx0PC4TibrFwdqi-2" value="" style="endArrow=none;html=1;rounded=0;" parent="1" target="aKAsnHx0PC4TibrFwdqi-3" edge="1">
          <mxGeometry width="50" height="50" relative="1" as="geometry">
            <mxPoint x="290" y="150" as="sourcePoint" />
            <mxPoint x="170" y="110" as="targetPoint" />
          </mxGeometry>
        </mxCell>
        <mxCell id="aKAsnHx0PC4TibrFwdqi-3" value="" style="rhombus;whiteSpace=wrap;html=1;fillColor=#141414;" parent="1" vertex="1">
          <mxGeometry x="155" y="100" width="20" height="20" as="geometry" />
        </mxCell>
        <mxCell id="aKAsnHx0PC4TibrFwdqi-4" value="" style="endArrow=none;html=1;rounded=0;" parent="1" target="aKAsnHx0PC4TibrFwdqi-5" edge="1">
          <mxGeometry width="50" height="50" relative="1" as="geometry">
            <mxPoint x="460" y="150" as="sourcePoint" />
            <mxPoint x="570" y="120" as="targetPoint" />
          </mxGeometry>
        </mxCell>
        <mxCell id="aKAsnHx0PC4TibrFwdqi-5" value="" style="rhombus;whiteSpace=wrap;html=1;fillColor=#141414;" parent="1" vertex="1">
          <mxGeometry x="570" y="110" width="20" height="20" as="geometry" />
        </mxCell>
        <mxCell id="2F2yP_ZM3ER53RJnO1JH-1" value="" style="endArrow=none;html=1;rounded=0;entryX=0;entryY=0.25;entryDx=0;entryDy=0;" edge="1" parent="1" target="xqg9ny0a13wJScTpyFNz-31">
          <mxGeometry width="50" height="50" relative="1" as="geometry">
            <mxPoint x="458" y="268" as="sourcePoint" />
            <mxPoint x="570" y="240" as="targetPoint" />
          </mxGeometry>
        </mxCell>
        <mxCell id="2F2yP_ZM3ER53RJnO1JH-2" value="" style="rhombus;whiteSpace=wrap;html=1;fillColor=#141414;" vertex="1" parent="1">
          <mxGeometry x="530" y="290" width="20" height="20" as="geometry" />
        </mxCell>
        <mxCell id="2F2yP_ZM3ER53RJnO1JH-3" value="" style="endArrow=none;html=1;rounded=0;" edge="1" parent="1">
          <mxGeometry width="50" height="50" relative="1" as="geometry">
            <mxPoint x="290" y="240" as="sourcePoint" />
            <mxPoint x="180" y="240" as="targetPoint" />
          </mxGeometry>
        </mxCell>
        <mxCell id="2F2yP_ZM3ER53RJnO1JH-4" value="" style="rhombus;whiteSpace=wrap;html=1;fillColor=#141414;" vertex="1" parent="1">
          <mxGeometry x="167.5" y="270" width="20" height="20" as="geometry" />
        </mxCell>
        <mxCell id="2F2yP_ZM3ER53RJnO1JH-8" value="" style="endArrow=none;html=1;rounded=0;" edge="1" parent="1">
          <mxGeometry width="50" height="50" relative="1" as="geometry">
            <mxPoint x="180" y="270" as="sourcePoint" />
            <mxPoint x="180" y="240" as="targetPoint" />
          </mxGeometry>
        </mxCell>
      </root>
    </mxGraphModel>
  </diagram>
</mxfile>
